<?xml version="1.0" standalone="no"?>
<!DOCTYPE svg PUBLIC "-//W3C//DTD SVG 20010904//EN"
 "http://www.w3.org/TR/2001/REC-SVG-20010904/DTD/svg10.dtd">
<svg version="1.0" xmlns="http://www.w3.org/2000/svg"
 width="828.725529pt" height="691.995308pt" viewBox="0 0 828.725529 691.995308"
 preserveAspectRatio="xMidYMid meet">
<metadata>
Created by potrace 1.12, written by Peter Selinger 2001-2015
</metadata>
<g transform="translate(-0.436986,693.995308) scale(0.100000,-0.100000)"
fill="#02b3e4" stroke="none">
<path d="M1003 6925 c-18 -48 28 -221 114 -423 36 -84 64 -155 62 -157 -7 -6
-293 216 -423 328 -153 133 -177 151 -238 183 -49 25 -158 57 -166 49 -2 -2
133 -145 301 -317 169 -171 305 -313 303 -315 -4 -4 -174 72 -301 134 -55 27
-138 67 -185 88 -47 22 -124 63 -172 93 -138 84 -177 97 -278 93 -23 -1 -23
-2 16 -43 23 -24 69 -80 103 -126 70 -93 100 -117 252 -204 102 -58 185 -116
176 -124 -2 -2 -60 22 -128 55 -129 61 -333 145 -383 157 -23 6 -27 4 -21 -7
89 -151 244 -309 385 -392 42 -25 43 -27 18 -27 -42 0 -35 -25 31 -113 60 -80
168 -155 304 -211 43 -18 46 -43 4 -38 -34 4 -67 -29 -67 -68 0 -62 35 -107
128 -167 48 -30 90 -58 94 -62 5 -4 -1 -25 -12 -46 -52 -102 6 -208 143 -265
42 -17 57 -29 57 -43 0 -36 39 -84 85 -106 25 -12 49 -21 54 -21 5 0 11 -14
15 -32 10 -51 52 -95 137 -144 94 -55 112 -70 104 -94 -4 -13 9 -25 62 -52 58
-30 68 -39 71 -64 3 -25 13 -34 77 -67 47 -25 77 -46 81 -60 20 -64 109 -127
182 -127 27 0 32 -4 32 -24 0 -58 46 -123 101 -146 22 -10 29 -19 29 -40 0
-53 75 -117 157 -134 24 -6 33 -14 38 -36 6 -25 69 -100 85 -100 4 0 10 -22
12 -48 8 -78 62 -132 157 -154 44 -10 50 -14 60 -49 12 -41 62 -89 92 -89 11
0 19 -7 19 -16 0 -9 15 -31 33 -49 25 -25 45 -35 83 -40 96 -12 104 -15 104
-37 0 -48 72 -118 120 -118 7 0 10 -6 7 -12 -9 -26 13 -56 57 -77 56 -26 66
-48 66 -141 l0 -68 -77 -46 c-100 -60 -203 -99 -334 -128 -100 -22 -120 -23
-502 -22 -509 2 -810 18 -980 50 -138 27 -230 33 -290 21 -31 -7 -39 -13 -44
-38 -3 -16 -9 -29 -13 -29 -16 0 -32 -62 -27 -103 4 -32 15 -50 43 -76 33 -30
38 -40 35 -72 -1 -20 1 -39 6 -42 4 -3 55 -16 113 -28 82 -19 110 -30 126 -49
20 -23 30 -25 143 -30 118 -5 122 -6 134 -30 19 -39 72 -60 152 -60 67 0 71
-1 87 -29 24 -42 71 -49 183 -26 111 23 125 23 198 -9 69 -31 159 -34 252 -10
37 9 138 19 260 24 153 6 228 14 319 34 65 14 162 30 215 37 154 18 270 -9
348 -83 17 -17 36 -27 42 -24 6 4 11 3 11 -1 0 -20 -55 -80 -198 -221 -92 -90
-159 -164 -172 -190 -33 -67 -41 -139 -29 -265 22 -240 72 -401 136 -432 49
-25 53 -34 53 -121 0 -96 -14 -172 -42 -229 -11 -22 -63 -81 -114 -131 -104
-101 -144 -168 -144 -242 0 -44 26 -108 54 -131 23 -19 44 -7 39 22 -8 39 29
105 107 195 39 45 76 82 80 82 9 0 -17 -146 -32 -175 -23 -43 -40 -55 -85 -55
-30 0 -43 -4 -43 -14 0 -8 7 -16 15 -20 8 -3 15 -10 15 -17 0 -6 -7 -8 -17 -5
-15 6 -32 -8 -33 -25 0 -15 93 -49 131 -49 60 0 106 50 138 150 13 41 38 115
57 164 40 103 44 167 14 226 -15 29 -20 59 -20 117 0 102 17 162 68 247 39 64
52 109 67 218 9 70 68 150 184 250 83 73 110 103 162 188 40 66 75 110 98 125
35 24 129 44 270 60 58 7 63 6 58 -11 -3 -11 -18 -93 -32 -184 -34 -208 -32
-390 5 -507 22 -69 40 -94 40 -55 0 10 5 23 12 30 8 8 18 0 40 -34 24 -38 31
-44 43 -34 13 10 18 5 35 -33 29 -66 60 -192 60 -246 0 -65 -26 -110 -85 -148
-27 -18 -56 -41 -62 -50 -18 -24 -16 -99 3 -139 21 -45 79 -92 122 -100 38 -7
38 -29 -1 -29 -31 1 -32 -4 -13 -48 20 -49 43 -67 84 -67 30 0 43 8 79 47 24
25 60 80 81 122 33 67 37 83 37 151 0 71 -4 82 -62 205 -117 246 -160 490
-104 594 13 25 83 106 155 180 218 224 259 297 296 527 23 143 64 170 277 183
125 8 147 12 233 46 87 34 106 38 230 44 l135 7 125 58 c196 92 264 107 294
64 22 -31 20 -60 -5 -92 -12 -15 -20 -29 -18 -31 12 -11 94 16 118 39 74 71
81 240 11 289 -35 24 -50 52 -61 114 -26 144 -97 202 -379 308 -179 68 -179
68 -169 121 44 236 312 533 804 891 112 81 465 319 636 428 116 74 194 151
250 246 23 40 84 117 135 172 163 171 325 440 397 657 50 151 66 240 81 465
13 202 11 223 -21 210 -7 -3 -20 -8 -30 -12 -14 -5 -15 -1 -9 27 21 110 37
283 32 350 -10 121 -32 190 -83 258 l-24 32 -28 -19 c-15 -11 -37 -42 -50 -70
-13 -28 -27 -48 -31 -46 -4 2 -10 35 -13 73 -10 117 -46 173 -99 153 -52 -20
-135 -124 -207 -261 l-51 -95 0 61 c0 77 -23 154 -55 184 l-25 23 -69 -71
c-109 -113 -187 -241 -241 -395 -15 -43 -31 -81 -34 -84 -3 -4 -6 32 -6 78 -1
173 -70 235 -165 148 -57 -52 -104 -130 -166 -272 -27 -62 -56 -118 -66 -124
-9 -7 -38 -13 -63 -13 -36 0 -57 -7 -88 -30 -55 -40 -130 -135 -194 -248 -84
-147 -80 -144 -176 -147 -66 -2 -92 -7 -139 -30 -71 -35 -159 -121 -202 -198
-27 -47 -41 -60 -84 -80 -74 -34 -125 -91 -203 -225 -86 -147 -168 -231 -359
-368 -138 -100 -185 -131 -380 -254 -216 -136 -403 -294 -536 -453 -41 -48
-50 -55 -55 -40 -29 82 -72 170 -118 238 -29 44 -80 121 -111 170 -93 146
-326 360 -470 431 -38 19 -140 54 -227 79 -242 69 -302 91 -463 170 -101 50
-190 104 -272 164 -67 49 -181 124 -254 167 -161 96 -242 172 -314 297 -27 48
-83 142 -123 211 -47 81 -92 175 -128 272 -61 162 -70 181 -122 267 -39 64
-67 73 -68 21 -3 -153 47 -378 116 -523 28 -57 50 -105 50 -107 0 -1 -36 14
-81 34 -127 57 -159 91 -239 257 -48 100 -92 173 -149 248 -44 58 -101 137
-125 174 -24 37 -77 116 -118 175 -42 58 -83 125 -92 147 -16 42 -42 54 -53
26z"/>
</g>
</svg>
